<svg width="136" height="42" viewBox="0 0 136 42" fill="none" xmlns="http://www.w3.org/2000/svg">
<path d="M51.632 17C51.5253 17 51.4347 16.9627 51.36 16.888C51.2853 16.8133 51.248 16.7227 51.248 16.616V6.2C51.248 6.08267 51.28 5.98667 51.344 5.912C51.4187 5.83733 51.5147 5.8 51.632 5.8H56.272C57.52 5.8 58.448 6.07733 59.056 6.632C59.6747 7.176 59.984 7.92267 59.984 8.872C59.984 9.42667 59.8453 9.90133 59.568 10.296C59.3013 10.68 58.9867 10.9573 58.624 11.128C59.072 11.3307 59.4453 11.6613 59.744 12.12C60.0533 12.5787 60.208 13.1013 60.208 13.688C60.208 14.68 59.872 15.48 59.2 16.088C58.5387 16.696 57.6053 17 56.4 17H51.632ZM55.984 10.392C56.5387 10.392 56.96 10.2587 57.248 9.992C57.536 9.72533 57.68 9.368 57.68 8.92C57.68 8.46133 57.536 8.10933 57.248 7.864C56.96 7.608 56.5387 7.48 55.984 7.48H53.472V10.392H55.984ZM56.144 15.304C56.6987 15.304 57.1307 15.1547 57.44 14.856C57.7493 14.5467 57.904 14.1573 57.904 13.688C57.904 13.208 57.7493 12.8187 57.44 12.52C57.1307 12.2107 56.6987 12.056 56.144 12.056H53.472V15.304H56.144ZM65.6088 17.16C64.4248 17.16 63.4808 16.8187 62.7768 16.136C62.0834 15.4427 61.7154 14.472 61.6728 13.224L61.6568 12.824L61.6728 12.424C61.7261 11.208 62.0994 10.2533 62.7928 9.56C63.4968 8.86667 64.4354 8.52 65.6088 8.52C66.8674 8.52 67.8381 8.904 68.5208 9.672C69.2141 10.44 69.5608 11.464 69.5608 12.744V13.08C69.5608 13.1867 69.5234 13.2773 69.4488 13.352C69.3741 13.4267 69.2781 13.464 69.1608 13.464H63.8488V13.592C63.8701 14.1787 64.0301 14.6747 64.3288 15.08C64.6381 15.4747 65.0594 15.672 65.5928 15.672C66.2221 15.672 66.7288 15.4267 67.1128 14.936C67.2088 14.8187 67.2834 14.744 67.3368 14.712C67.4008 14.68 67.4914 14.664 67.6088 14.664H68.9848C69.0808 14.664 69.1608 14.696 69.2248 14.76C69.2994 14.8133 69.3368 14.8827 69.3368 14.968C69.3368 15.224 69.1821 15.528 68.8728 15.88C68.5741 16.2213 68.1421 16.52 67.5768 16.776C67.0114 17.032 66.3554 17.16 65.6088 17.16ZM67.3848 12.12V12.072C67.3848 11.4427 67.2248 10.936 66.9048 10.552C66.5954 10.168 66.1634 9.976 65.6088 9.976C65.0541 9.976 64.6221 10.168 64.3128 10.552C64.0034 10.936 63.8488 11.4427 63.8488 12.072V12.12H67.3848ZM74.4111 17.16C73.6111 17.16 72.9391 17.0427 72.3951 16.808C71.8511 16.5627 71.4458 16.28 71.1791 15.96C70.9231 15.6293 70.7951 15.3467 70.7951 15.112C70.7951 15.0053 70.8325 14.92 70.9071 14.856C70.9818 14.792 71.0671 14.76 71.1631 14.76H72.4271C72.5231 14.76 72.6031 14.7973 72.6671 14.872C72.7098 14.904 72.8218 15 73.0031 15.16C73.1845 15.3307 73.3978 15.464 73.6431 15.56C73.8885 15.656 74.1605 15.704 74.4591 15.704C74.8858 15.704 75.2378 15.6187 75.5151 15.448C75.7925 15.2773 75.9311 15.0427 75.9311 14.744C75.9311 14.52 75.8671 14.3387 75.7391 14.2C75.6218 14.0613 75.4031 13.9387 75.0831 13.832C74.7631 13.7147 74.2885 13.592 73.6591 13.464C72.7525 13.272 72.0805 12.9787 71.6431 12.584C71.2165 12.1893 71.0031 11.6667 71.0031 11.016C71.0031 10.5893 71.1311 10.1893 71.3871 9.816C71.6431 9.432 72.0218 9.12267 72.5231 8.888C73.0351 8.64267 73.6431 8.52 74.3471 8.52C75.0618 8.52 75.6805 8.63733 76.2031 8.872C76.7258 9.096 77.1205 9.368 77.3871 9.688C77.6645 9.99733 77.8031 10.2747 77.8031 10.52C77.8031 10.616 77.7658 10.7013 77.6911 10.776C77.6271 10.84 77.5471 10.872 77.4511 10.872H76.2671C76.1818 10.872 76.0911 10.8347 75.9951 10.76C75.9205 10.7067 75.8031 10.6053 75.6431 10.456C75.4831 10.3067 75.2965 10.1893 75.0831 10.104C74.8698 10.0187 74.6191 9.976 74.3311 9.976C73.9365 9.976 73.6271 10.0613 73.4031 10.232C73.1898 10.4027 73.0831 10.6267 73.0831 10.904C73.0831 11.1067 73.1365 11.272 73.2431 11.4C73.3498 11.528 73.5578 11.6507 73.8671 11.768C74.1765 11.8853 74.6405 12.0027 75.2591 12.12C76.2831 12.3227 77.0138 12.6373 77.4511 13.064C77.8991 13.4907 78.1231 14.0133 78.1231 14.632C78.1231 15.3787 77.7978 15.9867 77.1471 16.456C76.4965 16.9253 75.5845 17.16 74.4111 17.16ZM83.5035 17C82.5328 17 81.8022 16.7493 81.3115 16.248C80.8315 15.736 80.5915 14.9893 80.5915 14.008V10.376H79.3275C79.2208 10.376 79.1302 10.3387 79.0555 10.264C78.9808 10.1787 78.9435 10.0827 78.9435 9.976V9.064C78.9435 8.95733 78.9808 8.86667 79.0555 8.792C79.1302 8.71733 79.2208 8.68 79.3275 8.68H80.5915V6.024C80.5915 5.90667 80.6288 5.816 80.7035 5.752C80.7782 5.67733 80.8688 5.64 80.9755 5.64H82.2715C82.3888 5.64 82.4795 5.67733 82.5435 5.752C82.6182 5.816 82.6555 5.90667 82.6555 6.024V8.68H84.6555C84.7728 8.68 84.8635 8.71733 84.9275 8.792C85.0022 8.856 85.0395 8.94667 85.0395 9.064V9.976C85.0395 10.0933 85.0022 10.1893 84.9275 10.264C84.8528 10.3387 84.7622 10.376 84.6555 10.376H82.6555V13.848C82.6555 14.3067 82.7355 14.6533 82.8955 14.888C83.0555 15.1227 83.3222 15.24 83.6955 15.24H84.7995C84.9062 15.24 84.9968 15.2773 85.0715 15.352C85.1462 15.4267 85.1835 15.5173 85.1835 15.624V16.616C85.1835 16.7227 85.1462 16.8133 85.0715 16.888C85.0075 16.9627 84.9168 17 84.7995 17H83.5035ZM93.2933 17C92.9839 17 92.7813 16.8507 92.6853 16.552L89.2613 6.28L89.2293 6.136C89.2293 6.04 89.2613 5.96 89.3253 5.896C89.3893 5.832 89.4693 5.8 89.5653 5.8H90.9733C91.1119 5.8 91.2186 5.83733 91.2933 5.912C91.3786 5.976 91.4373 6.056 91.4693 6.152L94.1733 14.392L96.8773 6.152C96.8986 6.06667 96.9519 5.98667 97.0373 5.912C97.1226 5.83733 97.2346 5.8 97.3733 5.8H98.7812C98.8666 5.8 98.9413 5.832 99.0053 5.896C99.0799 5.96 99.1173 6.04 99.1173 6.136L99.0853 6.28L95.6613 16.552C95.5653 16.8507 95.3626 17 95.0533 17H93.2933ZM100.939 7.304C100.832 7.304 100.741 7.26667 100.667 7.192C100.592 7.11733 100.555 7.02667 100.555 6.92V5.768C100.555 5.66133 100.592 5.57067 100.667 5.496C100.741 5.42133 100.832 5.384 100.939 5.384H102.395C102.501 5.384 102.592 5.42133 102.667 5.496C102.752 5.57067 102.795 5.66133 102.795 5.768V6.92C102.795 7.02667 102.757 7.11733 102.683 7.192C102.608 7.26667 102.512 7.304 102.395 7.304H100.939ZM101.003 17C100.896 17 100.805 16.9627 100.731 16.888C100.656 16.8133 100.618 16.7227 100.618 16.616V9.064C100.618 8.95733 100.656 8.86667 100.731 8.792C100.805 8.71733 100.896 8.68 101.003 8.68H102.331C102.448 8.68 102.539 8.71733 102.603 8.792C102.677 8.856 102.715 8.94667 102.715 9.064V16.616C102.715 16.7227 102.677 16.8133 102.603 16.888C102.539 16.9627 102.448 17 102.331 17H101.003ZM108.421 17.16C107.237 17.16 106.293 16.8187 105.589 16.136C104.896 15.4427 104.528 14.472 104.485 13.224L104.469 12.824L104.485 12.424C104.539 11.208 104.912 10.2533 105.605 9.56C106.309 8.86667 107.248 8.52 108.421 8.52C109.68 8.52 110.651 8.904 111.333 9.672C112.027 10.44 112.373 11.464 112.373 12.744V13.08C112.373 13.1867 112.336 13.2773 112.261 13.352C112.187 13.4267 112.091 13.464 111.973 13.464H106.661V13.592C106.683 14.1787 106.843 14.6747 107.141 15.08C107.451 15.4747 107.872 15.672 108.405 15.672C109.035 15.672 109.541 15.4267 109.925 14.936C110.021 14.8187 110.096 14.744 110.149 14.712C110.213 14.68 110.304 14.664 110.421 14.664H111.797C111.893 14.664 111.973 14.696 112.037 14.76C112.112 14.8133 112.149 14.8827 112.149 14.968C112.149 15.224 111.995 15.528 111.685 15.88C111.387 16.2213 110.955 16.52 110.389 16.776C109.824 17.032 109.168 17.16 108.421 17.16ZM110.197 12.12V12.072C110.197 11.4427 110.037 10.936 109.717 10.552C109.408 10.168 108.976 9.976 108.421 9.976C107.867 9.976 107.435 10.168 107.125 10.552C106.816 10.936 106.661 11.4427 106.661 12.072V12.12H110.197ZM116.109 17C115.971 17 115.859 16.968 115.773 16.904C115.699 16.8293 115.635 16.728 115.581 16.6L113.293 9.176C113.283 9.144 113.277 9.096 113.277 9.032C113.277 8.936 113.309 8.856 113.373 8.792C113.448 8.71733 113.528 8.68 113.613 8.68H114.797C114.915 8.68 115.011 8.712 115.085 8.776C115.16 8.84 115.208 8.90933 115.229 8.984L116.797 14.28L118.461 9.032C118.493 8.936 118.547 8.856 118.621 8.792C118.707 8.71733 118.813 8.68 118.941 8.68H119.741C119.869 8.68 119.971 8.71733 120.045 8.792C120.131 8.856 120.189 8.936 120.221 9.032L121.885 14.28L123.453 8.984C123.464 8.90933 123.507 8.84 123.581 8.776C123.667 8.712 123.763 8.68 123.869 8.68H125.053C125.149 8.68 125.229 8.71733 125.293 8.792C125.368 8.856 125.405 8.936 125.405 9.032L125.373 9.176L123.085 16.6C123.043 16.728 122.979 16.8293 122.893 16.904C122.819 16.968 122.712 17 122.573 17H121.533C121.256 17 121.08 16.8667 121.005 16.6L119.341 11.544L117.677 16.6C117.592 16.8667 117.411 17 117.133 17H116.109ZM129.911 17.16C129.111 17.16 128.439 17.0427 127.895 16.808C127.351 16.5627 126.946 16.28 126.679 15.96C126.423 15.6293 126.295 15.3467 126.295 15.112C126.295 15.0053 126.332 14.92 126.407 14.856C126.482 14.792 126.567 14.76 126.663 14.76H127.927C128.023 14.76 128.103 14.7973 128.167 14.872C128.21 14.904 128.322 15 128.503 15.16C128.684 15.3307 128.898 15.464 129.143 15.56C129.388 15.656 129.66 15.704 129.959 15.704C130.386 15.704 130.738 15.6187 131.015 15.448C131.292 15.2773 131.431 15.0427 131.431 14.744C131.431 14.52 131.367 14.3387 131.239 14.2C131.122 14.0613 130.903 13.9387 130.583 13.832C130.263 13.7147 129.788 13.592 129.159 13.464C128.252 13.272 127.58 12.9787 127.143 12.584C126.716 12.1893 126.503 11.6667 126.503 11.016C126.503 10.5893 126.631 10.1893 126.887 9.816C127.143 9.432 127.522 9.12267 128.023 8.888C128.535 8.64267 129.143 8.52 129.847 8.52C130.562 8.52 131.18 8.63733 131.703 8.872C132.226 9.096 132.62 9.368 132.887 9.688C133.164 9.99733 133.303 10.2747 133.303 10.52C133.303 10.616 133.266 10.7013 133.191 10.776C133.127 10.84 133.047 10.872 132.951 10.872H131.767C131.682 10.872 131.591 10.8347 131.495 10.76C131.42 10.7067 131.303 10.6053 131.143 10.456C130.983 10.3067 130.796 10.1893 130.583 10.104C130.37 10.0187 130.119 9.976 129.831 9.976C129.436 9.976 129.127 10.0613 128.903 10.232C128.69 10.4027 128.583 10.6267 128.583 10.904C128.583 11.1067 128.636 11.272 128.743 11.4C128.85 11.528 129.058 11.6507 129.367 11.768C129.676 11.8853 130.14 12.0027 130.759 12.12C131.783 12.3227 132.514 12.6373 132.951 13.064C133.399 13.4907 133.623 14.0133 133.623 14.632C133.623 15.3787 133.298 15.9867 132.647 16.456C131.996 16.9253 131.084 17.16 129.911 17.16ZM51.632 37C51.5253 37 51.4347 36.9627 51.36 36.888C51.2853 36.8133 51.248 36.7227 51.248 36.616V26.2C51.248 26.0827 51.28 25.9867 51.344 25.912C51.4187 25.8373 51.5147 25.8 51.632 25.8H55.776C57.0773 25.8 58.096 26.104 58.832 26.712C59.5787 27.32 59.952 28.184 59.952 29.304C59.952 30.0827 59.76 30.7387 59.376 31.272C59.0027 31.7947 58.48 32.1733 57.808 32.408L60.144 36.488C60.176 36.552 60.192 36.6107 60.192 36.664C60.192 36.76 60.1547 36.84 60.08 36.904C60.016 36.968 59.9413 37 59.856 37H58.4C58.2293 37 58.096 36.9627 58 36.888C57.9147 36.8133 57.8347 36.7067 57.76 36.568L55.696 32.776H53.472V36.616C53.472 36.7227 53.4347 36.8133 53.36 36.888C53.296 36.9627 53.2053 37 53.088 37H51.632ZM55.728 30.968C56.368 30.968 56.848 30.824 57.168 30.536C57.4987 30.248 57.664 29.832 57.664 29.288C57.664 28.744 57.4987 28.3227 57.168 28.024C56.848 27.7253 56.368 27.576 55.728 27.576H53.472V30.968H55.728ZM65.3119 37.16C64.1279 37.16 63.1839 36.8187 62.4799 36.136C61.7865 35.4427 61.4185 34.472 61.3759 33.224L61.3599 32.824L61.3759 32.424C61.4292 31.208 61.8025 30.2533 62.4959 29.56C63.1999 28.8667 64.1385 28.52 65.3119 28.52C66.5705 28.52 67.5412 28.904 68.2239 29.672C68.9172 30.44 69.2639 31.464 69.2639 32.744V33.08C69.2639 33.1867 69.2265 33.2773 69.1519 33.352C69.0772 33.4267 68.9812 33.464 68.8639 33.464H63.5519V33.592C63.5732 34.1787 63.7332 34.6747 64.0319 35.08C64.3412 35.4747 64.7625 35.672 65.2959 35.672C65.9252 35.672 66.4319 35.4267 66.8159 34.936C66.9119 34.8187 66.9865 34.744 67.0399 34.712C67.1039 34.68 67.1945 34.664 67.3119 34.664H68.6879C68.7839 34.664 68.8639 34.696 68.9279 34.76C69.0025 34.8133 69.0399 34.8827 69.0399 34.968C69.0399 35.224 68.8852 35.528 68.5759 35.88C68.2772 36.2213 67.8452 36.52 67.2799 36.776C66.7145 37.032 66.0585 37.16 65.3119 37.16ZM67.0879 32.12V32.072C67.0879 31.4427 66.9279 30.936 66.6079 30.552C66.2985 30.168 65.8665 29.976 65.3119 29.976C64.7572 29.976 64.3252 30.168 64.0159 30.552C63.7065 30.936 63.5519 31.4427 63.5519 32.072V32.12H67.0879ZM73.6094 37C73.4494 37 73.3267 36.968 73.2414 36.904C73.156 36.8293 73.0867 36.728 73.0334 36.6L70.0414 29.176L70.0094 29.032C70.0094 28.936 70.0414 28.856 70.1054 28.792C70.18 28.7173 70.2654 28.68 70.3614 28.68H71.6574C71.86 28.68 71.9987 28.7813 72.0734 28.984L74.2014 34.6L76.3294 28.984C76.3614 28.9093 76.4094 28.84 76.4734 28.776C76.548 28.712 76.6387 28.68 76.7454 28.68H78.0574C78.1427 28.68 78.2174 28.7173 78.2814 28.792C78.356 28.856 78.3934 28.936 78.3934 29.032C78.3934 29.096 78.388 29.144 78.3774 29.176L75.3694 36.6C75.316 36.728 75.2467 36.8293 75.1614 36.904C75.076 36.968 74.9534 37 74.7934 37H73.6094ZM80.1729 27.304C80.0662 27.304 79.9755 27.2667 79.9009 27.192C79.8262 27.1173 79.7889 27.0267 79.7889 26.92V25.768C79.7889 25.6613 79.8262 25.5707 79.9009 25.496C79.9755 25.4213 80.0662 25.384 80.1729 25.384H81.6289C81.7355 25.384 81.8262 25.4213 81.9009 25.496C81.9862 25.5707 82.0289 25.6613 82.0289 25.768V26.92C82.0289 27.0267 81.9915 27.1173 81.9169 27.192C81.8422 27.2667 81.7462 27.304 81.6289 27.304H80.1729ZM80.2369 37C80.1302 37 80.0395 36.9627 79.9649 36.888C79.8902 36.8133 79.8529 36.7227 79.8529 36.616V29.064C79.8529 28.9573 79.8902 28.8667 79.9649 28.792C80.0395 28.7173 80.1302 28.68 80.2369 28.68H81.5649C81.6822 28.68 81.7729 28.7173 81.8369 28.792C81.9115 28.856 81.9489 28.9467 81.9489 29.064V36.616C81.9489 36.7227 81.9115 36.8133 81.8369 36.888C81.7729 36.9627 81.6822 37 81.5649 37H80.2369ZM87.6556 37.16C86.4716 37.16 85.5276 36.8187 84.8236 36.136C84.1303 35.4427 83.7623 34.472 83.7196 33.224L83.7036 32.824L83.7196 32.424C83.773 31.208 84.1463 30.2533 84.8396 29.56C85.5436 28.8667 86.4823 28.52 87.6556 28.52C88.9143 28.52 89.885 28.904 90.5676 29.672C91.261 30.44 91.6076 31.464 91.6076 32.744V33.08C91.6076 33.1867 91.5703 33.2773 91.4956 33.352C91.421 33.4267 91.325 33.464 91.2076 33.464H85.8956V33.592C85.917 34.1787 86.077 34.6747 86.3756 35.08C86.685 35.4747 87.1063 35.672 87.6396 35.672C88.269 35.672 88.7756 35.4267 89.1596 34.936C89.2556 34.8187 89.3303 34.744 89.3836 34.712C89.4476 34.68 89.5383 34.664 89.6556 34.664H91.0316C91.1276 34.664 91.2076 34.696 91.2716 34.76C91.3463 34.8133 91.3836 34.8827 91.3836 34.968C91.3836 35.224 91.229 35.528 90.9196 35.88C90.621 36.2213 90.189 36.52 89.6236 36.776C89.0583 37.032 88.4023 37.16 87.6556 37.16ZM89.4316 32.12V32.072C89.4316 31.4427 89.2716 30.936 88.9516 30.552C88.6423 30.168 88.2103 29.976 87.6556 29.976C87.101 29.976 86.669 30.168 86.3596 30.552C86.0503 30.936 85.8956 31.4427 85.8956 32.072V32.12H89.4316ZM95.3436 37C95.205 37 95.093 36.968 95.0076 36.904C94.933 36.8293 94.869 36.728 94.8156 36.6L92.5276 29.176C92.517 29.144 92.5116 29.096 92.5116 29.032C92.5116 28.936 92.5436 28.856 92.6076 28.792C92.6823 28.7173 92.7623 28.68 92.8476 28.68H94.0316C94.149 28.68 94.245 28.712 94.3196 28.776C94.3943 28.84 94.4423 28.9093 94.4636 28.984L96.0316 34.28L97.6956 29.032C97.7276 28.936 97.781 28.856 97.8556 28.792C97.941 28.7173 98.0476 28.68 98.1756 28.68H98.9756C99.1036 28.68 99.205 28.7173 99.2796 28.792C99.365 28.856 99.4236 28.936 99.4556 29.032L101.12 34.28L102.688 28.984C102.698 28.9093 102.741 28.84 102.816 28.776C102.901 28.712 102.997 28.68 103.104 28.68H104.288C104.384 28.68 104.464 28.7173 104.528 28.792C104.602 28.856 104.64 28.936 104.64 29.032L104.608 29.176L102.32 36.6C102.277 36.728 102.213 36.8293 102.128 36.904C102.053 36.968 101.946 37 101.808 37H100.768C100.49 37 100.314 36.8667 100.24 36.6L98.5756 31.544L96.9116 36.6C96.8263 36.8667 96.645 37 96.3676 37H95.3436ZM109.146 37.16C108.346 37.16 107.674 37.0427 107.13 36.808C106.586 36.5627 106.18 36.28 105.914 35.96C105.658 35.6293 105.53 35.3467 105.53 35.112C105.53 35.0053 105.567 34.92 105.642 34.856C105.716 34.792 105.802 34.76 105.898 34.76H107.162C107.258 34.76 107.338 34.7973 107.402 34.872C107.444 34.904 107.556 35 107.738 35.16C107.919 35.3307 108.132 35.464 108.378 35.56C108.623 35.656 108.895 35.704 109.194 35.704C109.62 35.704 109.972 35.6187 110.25 35.448C110.527 35.2773 110.666 35.0427 110.666 34.744C110.666 34.52 110.602 34.3387 110.474 34.2C110.356 34.0613 110.138 33.9387 109.818 33.832C109.498 33.7147 109.023 33.592 108.394 33.464C107.487 33.272 106.815 32.9787 106.378 32.584C105.951 32.1893 105.738 31.6667 105.738 31.016C105.738 30.5893 105.866 30.1893 106.122 29.816C106.378 29.432 106.756 29.1227 107.258 28.888C107.77 28.6427 108.378 28.52 109.082 28.52C109.796 28.52 110.415 28.6373 110.938 28.872C111.46 29.096 111.855 29.368 112.122 29.688C112.399 29.9973 112.538 30.2747 112.538 30.52C112.538 30.616 112.5 30.7013 112.426 30.776C112.362 30.84 112.282 30.872 112.186 30.872H111.002C110.916 30.872 110.826 30.8347 110.73 30.76C110.655 30.7067 110.538 30.6053 110.378 30.456C110.218 30.3067 110.031 30.1893 109.818 30.104C109.604 30.0187 109.354 29.976 109.066 29.976C108.671 29.976 108.362 30.0613 108.138 30.232C107.924 30.4027 107.818 30.6267 107.818 30.904C107.818 31.1067 107.871 31.272 107.978 31.4C108.084 31.528 108.292 31.6507 108.602 31.768C108.911 31.8853 109.375 32.0027 109.994 32.12C111.018 32.3227 111.748 32.6373 112.186 33.064C112.634 33.4907 112.858 34.0133 112.858 34.632C112.858 35.3787 112.532 35.9867 111.882 36.456C111.231 36.9253 110.319 37.16 109.146 37.16Z" fill="white"/>
<path opacity="0.997582" fill-rule="evenodd" clip-rule="evenodd" d="M13.2148 13.2297L18.3818 18.0522C18.4743 18.1386 18.5963 18.1867 18.7229 18.1867H26.8567C27.0296 18.4856 27.3528 18.6867 27.7229 18.6867C28.2752 18.6867 28.7229 18.239 28.7229 17.6867C28.7229 17.1344 28.2752 16.6867 27.7229 16.6867C27.3528 16.6867 27.0296 16.8878 26.8567 17.1867L18.92 17.1867L14.4969 13.0584L15.3694 12.9418L20.8212 1.568C21.0599 1.06997 21.6571 0.859754 22.1551 1.09847C22.3606 1.19693 22.5262 1.36258 22.6247 1.568L28.0764 12.9418L40.5782 14.612C41.1257 14.6852 41.5102 15.1882 41.437 15.7356C41.4069 15.9614 41.3005 16.1702 41.1356 16.3273L32.0031 25.0269L32.9765 30.3356L27.4671 27.2503C27.3925 27.2085 27.3084 27.1866 27.2228 27.1866H19.5891C19.4162 26.8877 19.093 26.6867 18.7229 26.6867C18.1706 26.6867 17.7229 27.1344 17.7229 27.6867C17.7229 28.239 18.1706 28.6867 18.7229 28.6867C19.0931 28.6867 19.4163 28.4855 19.5892 28.1866H27.0924L33.2107 31.6129L34.2779 37.433C34.3775 37.9762 34.0179 38.4973 33.4747 38.5969C33.2506 38.638 33.0192 38.6014 32.8188 38.4931L21.7229 32.4959L10.627 38.4931C10.1411 38.7557 9.53439 38.5747 9.27179 38.0888C9.16348 37.8884 9.12683 37.657 9.16792 37.433L11.4428 25.0269L2.31026 16.3273C1.91038 15.9464 1.89501 15.3134 2.27594 14.9135C2.43306 14.7485 2.64179 14.6422 2.86758 14.612L13.2148 13.2297ZM19.5891 22.1867C19.4162 21.8878 19.0931 21.6867 18.7229 21.6867C18.1706 21.6867 17.7229 22.1344 17.7229 22.6867C17.7229 23.239 18.1706 23.6867 18.7229 23.6867C19.0931 23.6867 19.4162 23.4856 19.5891 23.1867H26.8567C27.0296 23.4856 27.3528 23.6867 27.7229 23.6867C28.2752 23.6867 28.7229 23.239 28.7229 22.6867C28.7229 22.1344 28.2752 21.6867 27.7229 21.6867C27.3528 21.6867 27.0296 21.8878 26.8567 22.1867H19.5891Z" fill="#57A3F9"/>
</svg>
